<svg width="40" height="40" viewBox="0 0 40 40" fill="none" xmlns="http://www.w3.org/2000/svg">
<g clip-path="url(#clip0_12_201)">
<path d="M15.4779 5.625C14.6016 5.625 14.1491 6.67203 14.7496 7.31024L19.2716 12.1165C19.6665 12.5362 20.3334 12.5362 20.7283 12.1165L25.2503 7.31024C25.8508 6.67202 25.3983 5.625 24.522 5.625H15.4779ZM30.7032 8.70835C30.3331 8.20549 29.5978 8.16103 29.1698 8.61564L25.9227 12.0645C25.3219 12.7026 25.7744 13.75 26.6508 13.75H32.4363C33.2562 13.75 33.7277 12.8176 33.2417 12.1572L30.7032 8.70835ZM32.4031 19.1676C32.9805 18.5237 32.5235 17.5 31.6586 17.5H19.9999H8.34131C7.47641 17.5 7.01939 18.5237 7.59679 19.1676L19.2554 32.1697C19.6528 32.6129 20.347 32.6129 20.7445 32.1697L32.4031 19.1676ZM6.75819 12.1572C6.27218 12.8176 6.74366 13.75 7.56356 13.75H13.3491C14.2255 13.75 14.6779 12.7027 14.0771 12.0645L10.8301 8.61564C10.4021 8.16103 9.66675 8.20549 9.29663 8.70835L6.75819 12.1572ZM39.5156 16.8828L21.3906 36.8828C21.039 37.2734 20.5312 37.5 19.9999 37.5C19.4687 37.5 18.9687 37.2734 18.6093 36.8828L0.484313 16.8828C-0.11725 16.2188 -0.164125 15.2266 0.367125 14.5078L9.11712 2.63281C9.46869 2.15625 10.0312 1.86719 10.6249 1.86719H29.3749C29.9687 1.86719 30.5312 2.14844 30.8827 2.63281L39.6327 14.5078C40.164 15.2266 40.1093 16.2188 39.5156 16.8828Z" fill="#320339"/>
</g>
<defs>
<clipPath id="clip0_12_201">
<rect width="40" height="40" fill="white"/>
</clipPath>
</defs>
</svg>
