<svg width="37" height="37" viewBox="0 0 37 37" fill="none" xmlns="http://www.w3.org/2000/svg">
<path d="M18.6944 11.2188C16.8537 11.2188 15.0883 11.95 13.7867 13.2516C12.4851 14.5532 11.7539 16.3185 11.7539 18.1593C11.7539 20 12.4851 21.7653 13.7867 23.0669C15.0883 24.3685 16.8537 25.0998 18.6944 25.0998C20.5351 25.0998 22.3005 24.3685 23.6021 23.0669C24.9037 21.7653 25.6349 20 25.6349 18.1593C25.6349 16.3185 24.9037 14.5532 23.6021 13.2516C22.3005 11.95 20.5351 11.2188 18.6944 11.2188ZM18.6944 22.6667C17.4985 22.6667 16.3517 22.1916 15.5061 21.3461C14.6605 20.5005 14.1855 19.3536 14.1855 18.1578C14.1855 16.9619 14.6605 15.8151 15.5061 14.9695C16.3517 14.1239 17.4985 13.6488 18.6944 13.6488C19.8902 13.6488 21.0371 14.1239 21.8827 14.9695C22.7283 15.8151 23.2033 16.9619 23.2033 18.1578C23.2033 19.3536 22.7283 20.5005 21.8827 21.3461C21.0371 22.1916 19.8902 22.6667 18.6944 22.6667Z" fill="#320339"/>
<path d="M25.9096 12.5816C26.8032 12.5816 27.5276 11.8571 27.5276 10.9635C27.5276 10.0699 26.8032 9.34546 25.9096 9.34546C25.016 9.34546 24.2915 10.0699 24.2915 10.9635C24.2915 11.8571 25.016 12.5816 25.9096 12.5816Z" fill="#320339"/>
<path d="M31.5037 9.31852C31.1562 8.42121 30.6252 7.60633 29.9447 6.92606C29.2642 6.24578 28.4491 5.71509 27.5516 5.36796C26.5015 4.97374 25.392 4.76057 24.2705 4.73755C22.8251 4.67451 22.3673 4.65649 18.7019 4.65649C15.0365 4.65649 14.5667 4.65649 13.1333 4.73755C12.0126 4.7594 10.904 4.9726 9.85515 5.36796C8.95747 5.71468 8.14219 6.24523 7.4616 6.92556C6.78101 7.60589 6.25015 8.42097 5.90309 9.31852C5.50879 10.3686 5.29611 11.4782 5.27418 12.5997C5.20964 14.0436 5.19012 14.5014 5.19012 18.1683C5.19012 21.8336 5.19012 22.3005 5.27418 23.7369C5.29669 24.8596 5.50833 25.9673 5.90309 27.0195C6.25113 27.9167 6.7825 28.7315 7.46325 29.4117C8.14401 30.092 8.95917 30.6227 9.85665 30.9701C10.9035 31.3801 12.0126 31.6086 13.1363 31.6455C14.5817 31.7086 15.0395 31.7281 18.7049 31.7281C22.3703 31.7281 22.8401 31.7281 24.2735 31.6455C25.3949 31.6227 26.5043 31.4101 27.5547 31.0166C28.4519 30.6687 29.2667 30.1375 29.9472 29.4571C30.6276 28.7766 31.1588 27.9618 31.5067 27.0645C31.9015 26.0139 32.1131 24.9061 32.1356 23.7834C32.2002 22.3395 32.2197 21.8817 32.2197 18.2148C32.2197 14.5479 32.2197 14.0826 32.1356 12.6462C32.1182 11.5089 31.9044 10.3831 31.5037 9.31852ZM29.6755 23.6258C29.6659 24.4908 29.508 25.3478 29.2087 26.1595C28.9833 26.7431 28.6382 27.2732 28.1957 27.7155C27.7531 28.1578 27.2229 28.5026 26.6391 28.7276C25.8364 29.0255 24.9885 29.1834 24.1324 29.1944C22.7065 29.2605 22.3042 29.277 18.6479 29.277C14.9885 29.277 14.6147 29.277 13.1618 29.1944C12.3061 29.184 11.4587 29.026 10.6567 28.7276C10.0708 28.504 9.53845 28.1598 9.09399 27.7174C8.64954 27.275 8.3029 26.7443 8.0765 26.1595C7.78148 25.3565 7.62367 24.5096 7.60969 23.6543C7.54515 22.2284 7.53014 21.8261 7.53014 18.1698C7.53014 14.5119 7.53014 14.1382 7.60969 12.6837C7.6194 11.8192 7.77729 10.9627 8.0765 10.1516C8.5343 8.96729 9.4724 8.03519 10.6567 7.58189C11.4591 7.28491 12.3063 7.12704 13.1618 7.11509C14.5892 7.05055 14.99 7.03254 18.6479 7.03254C22.3057 7.03254 22.681 7.03254 24.1324 7.11509C24.9886 7.12539 25.8366 7.28331 26.6391 7.58189C27.2228 7.80745 27.753 8.15257 28.1955 8.5951C28.6381 9.03763 28.9832 9.56779 29.2087 10.1516C29.5037 10.9545 29.6616 11.8014 29.6755 12.6567C29.7401 14.0841 29.7566 14.4849 29.7566 18.1428C29.7566 21.7991 29.7566 22.1924 29.692 23.6273H29.6755V23.6258Z" fill="#320339"/>
</svg>
