<svg width="50" height="51" viewBox="0 0 50 51" fill="none" xmlns="http://www.w3.org/2000/svg">
<path d="M24.9979 16.0996C22.443 16.0996 19.9927 17.1005 18.1861 18.882C16.3795 20.6635 15.3646 23.0797 15.3646 25.5991C15.3646 28.1186 16.3795 30.5348 18.1861 32.3163C19.9927 34.0978 22.443 35.0987 24.9979 35.0987C27.5528 35.0987 30.0031 34.0978 31.8097 32.3163C33.6163 30.5348 34.6313 28.1186 34.6313 25.5991C34.6313 23.0797 33.6163 20.6635 31.8097 18.882C30.0031 17.1005 27.5528 16.0996 24.9979 16.0996ZM24.9979 31.7685C23.3381 31.7685 21.7463 31.1183 20.5726 29.9609C19.3989 28.8036 18.7396 27.2339 18.7396 25.5971C18.7396 23.9603 19.3989 22.3906 20.5726 21.2332C21.7463 20.0759 23.3381 19.4257 24.9979 19.4257C26.6577 19.4257 28.2496 20.0759 29.4232 21.2332C30.5969 22.3906 31.2563 23.9603 31.2563 25.5971C31.2563 27.2339 30.5969 28.8036 29.4232 29.9609C28.2496 31.1183 26.6577 31.7685 24.9979 31.7685Z" fill="#D891AB"/>
<path d="M35.0125 17.9649C36.2528 17.9649 37.2583 16.9734 37.2583 15.7503C37.2583 14.5272 36.2528 13.5356 35.0125 13.5356C33.7722 13.5356 32.7667 14.5272 32.7667 15.7503C32.7667 16.9734 33.7722 17.9649 35.0125 17.9649Z" fill="#D891AB"/>
<path d="M42.7771 13.4989C42.2948 12.2707 41.5578 11.1554 40.6132 10.2243C39.6686 9.29319 38.5373 8.56683 37.2917 8.0917C35.834 7.55213 34.2941 7.26037 32.7375 7.22886C30.7313 7.14257 30.0958 7.11792 25.0083 7.11792C19.9208 7.11792 19.2687 7.11792 17.2792 7.22886C15.7237 7.25876 14.1849 7.55058 12.7292 8.0917C11.4832 8.56627 10.3516 9.29244 9.40695 10.2236C8.4623 11.1548 7.72548 12.2704 7.24375 13.4989C6.69647 14.9362 6.40128 16.4548 6.37083 17.9898C6.28125 19.9661 6.25417 20.5927 6.25417 25.6116C6.25417 30.6285 6.25417 31.2674 6.37083 33.2334C6.40208 34.7701 6.69583 36.2863 7.24375 37.7264C7.72683 38.9544 8.46437 40.0696 9.40924 41.0006C10.3541 41.9317 11.4855 42.6581 12.7312 43.1336C14.1842 43.6948 15.7237 44.0075 17.2833 44.058C19.2896 44.1443 19.925 44.171 25.0125 44.171C30.1 44.171 30.7521 44.171 32.7417 44.058C34.2981 44.0268 35.838 43.7358 37.2958 43.1973C38.5412 42.721 39.6721 41.994 40.6166 41.0627C41.5611 40.1313 42.2983 39.0161 42.7812 37.788C43.3292 36.3499 43.6229 34.8338 43.6542 33.2971C43.7438 31.3208 43.7708 30.6942 43.7708 25.6753C43.7708 20.6564 43.7708 20.0195 43.6542 18.0535C43.6299 16.4968 43.3332 14.956 42.7771 13.4989ZM40.2396 33.0814C40.2262 34.2654 40.007 35.4383 39.5917 36.5492C39.2788 37.3481 38.7998 38.0736 38.1856 38.679C37.5713 39.2844 36.8353 39.7562 36.025 40.0643C34.9109 40.472 33.7341 40.6881 32.5458 40.7032C30.5667 40.7936 30.0083 40.8162 24.9333 40.8162C19.8542 40.8162 19.3354 40.8162 17.3187 40.7032C16.1311 40.6889 14.9548 40.4727 13.8417 40.0643C13.0285 39.7582 12.2896 39.2871 11.6727 38.6816C11.0558 38.0761 10.5747 37.3496 10.2604 36.5492C9.85093 35.4502 9.6319 34.2911 9.6125 33.1204C9.52292 31.1688 9.50208 30.6182 9.50208 25.6137C9.50208 20.6071 9.50208 20.0956 9.6125 18.1048C9.62597 16.9216 9.84511 15.7493 10.2604 14.6391C10.8958 13.0182 12.1979 11.7424 13.8417 11.1219C14.9554 10.7155 16.1313 10.4994 17.3187 10.483C19.3 10.3947 19.8563 10.37 24.9333 10.37C30.0104 10.37 30.5312 10.37 32.5458 10.483C33.7342 10.4971 34.9112 10.7133 36.025 11.1219C36.8353 11.4307 37.5711 11.903 38.1854 12.5087C38.7996 13.1144 39.2786 13.8401 39.5917 14.6391C40.0012 15.7381 40.2202 16.8972 40.2396 18.0679C40.3292 20.0216 40.3521 20.5701 40.3521 25.5767C40.3521 30.5812 40.3521 31.1195 40.2625 33.0835H40.2396V33.0814Z" fill="#D891AB"/>
</svg>
