<?xml version="1.0" encoding="utf-8"?>
<!-- Generator: Adobe Illustrator 25.4.1, SVG Export Plug-In . SVG Version: 6.00 Build 0)  -->
<svg version="1.1" id="Capa_1" xmlns="http://www.w3.org/2000/svg" xmlns:xlink="http://www.w3.org/1999/xlink" x="0px" y="0px"
	 viewBox="0 0 99 158" style="enable-background:new 0 0 99 158;" xml:space="preserve">
<style type="text/css">
	.st0{fill:#FFFFFF;}
</style>
<g>
	<g>
		<g>
			<path class="st0" d="M97.6,75.28c-0.83,0-1.5-0.67-1.5-1.5V48.54c0-24.54-19.2-44.6-43.7-45.65l-5.52,0
				C22.43,3.94,3.24,23.99,3.24,48.54v25.24c0,0.83-0.67,1.5-1.5,1.5s-1.5-0.67-1.5-1.5V48.54c0-26.16,20.46-47.52,46.58-48.65
				l5.65,0C78.64,1.01,99.1,22.38,99.1,48.54v25.24C99.1,74.61,98.43,75.28,97.6,75.28z"/>
		</g>
		<g>
			<path class="st0" d="M46.88,157.19c-26.18-1.12-46.64-22.49-46.64-48.65V83.3c0-0.83,0.67-1.5,1.5-1.5s1.5,0.67,1.5,1.5v25.24
				c0,24.54,19.2,44.6,43.7,45.65l5.52,0c24.44-1.05,43.64-21.1,43.64-45.65V83.3c0-0.83,0.67-1.5,1.5-1.5c0.83,0,1.5,0.67,1.5,1.5
				v25.24c0,26.16-20.46,47.52-46.58,48.65L46.88,157.19z"/>
		</g>
	</g>
	<g>
		<g>
			<g>
				<path class="st0" d="M51.27,145.14c0,0.88-0.72,1.6-1.6,1.6c-0.88,0-1.6-0.72-1.6-1.6c0-0.88,0.72-1.6,1.6-1.6
					C50.55,143.54,51.27,144.26,51.27,145.14z"/>
			</g>
		</g>
		<g>
			<g>
				<path class="st0" d="M51.27,11.94c0,0.88-0.72,1.6-1.6,1.6c-0.88,0-1.6-0.72-1.6-1.6s0.72-1.6,1.6-1.6
					C50.55,10.34,51.27,11.06,51.27,11.94z"/>
			</g>
		</g>
	</g>
	<g>
		<g>
			<path class="st0" d="M42.9,116.99c-0.39,0-0.77-0.01-1.16-0.02c-7.03-0.3-13.29-3.19-17.2-7.94c0,0-0.08-0.1-0.08-0.1
				c-2.3-2.82-4.07-6.25-5.11-9.92c-0.76-2.68-1.15-5.48-1.15-8.32V52.49c0-8.13,3.06-15.65,8.4-20.63
				c4.66-4.35,10.69-6.41,17.45-5.94c5.19,0.36,10.05,2.43,14.07,5.98c3.07,2.72,5.47,6.18,6.94,10.02c0.3,0.77-0.09,1.64-0.86,1.94
				c-0.77,0.3-1.64-0.09-1.94-0.86c-1.3-3.38-3.42-6.44-6.13-8.84c-3.51-3.11-7.76-4.92-12.29-5.24c-5.91-0.4-11.16,1.37-15.2,5.14
				C23.98,38.4,21.2,45.3,21.2,52.49V90.7c0,2.56,0.35,5.08,1.03,7.5c0.93,3.27,2.51,6.33,4.55,8.84l-1.09,1.04l1.16-0.95
				c3.32,4.03,8.93,6.59,15.01,6.85c6.05,0.26,11.63-1.73,15.26-5.46c1.79-1.84,3.28-4,4.42-6.44c0.35-0.75,1.24-1.08,2-0.72
				c0.75,0.35,1.07,1.24,0.72,2c-1.29,2.74-2.96,5.19-4.99,7.26C55.28,114.7,49.37,116.99,42.9,116.99z"/>
		</g>
		<g>
			<path class="st0" d="M55.83,131.22c-2.56,0-5.04-0.3-7.29-0.88c-3.79-0.97-7.11-2.46-9.85-4.44c-0.67-0.48-0.82-1.42-0.34-2.09
				c0.49-0.67,1.42-0.82,2.09-0.34c2.43,1.76,5.41,3.09,8.83,3.97c8.53,2.18,20.6-0.18,26.02-7.89c3.24-4.61,3.75-10.95,1.26-15.78
				c-2.38-4.63-8.63-8.32-13.66-11.28l-1.08-0.63c-2.35-1.39-4.91-2.7-7.38-3.97c-10.37-5.32-21.09-10.82-21.34-24.19
				c-0.12-6.55,2.19-12.51,6.5-16.78c4.48-4.43,10.65-6.66,17.92-6.44C75.4,41,79.44,56.53,79.48,56.68c0.2,0.8-0.29,1.62-1.1,1.82
				c-0.8,0.2-1.62-0.29-1.82-1.09c-0.14-0.56-3.58-13.48-19.12-13.94c-6.37-0.18-11.84,1.74-15.72,5.57
				C38,52.73,36,57.91,36.11,63.63c0.22,11.58,9.68,16.44,19.71,21.58c2.51,1.29,5.11,2.62,7.54,4.06l1.07,0.63
				c5.36,3.16,12.04,7.09,14.81,12.5c3.02,5.89,2.44,13.3-1.48,18.87C72.89,128.19,63.96,131.22,55.83,131.22z"/>
		</g>
	</g>
</g>
</svg>
