<svg width="36" height="34" viewBox="0 0 36 34" fill="none" xmlns="http://www.w3.org/2000/svg">
<path d="M13.7458 11.4421L16.4907 7.95168C17.4575 6.72246 17.3839 5.08251 16.329 4.34479C15.3757 3.67806 13.9452 3.98433 13.021 5.05303L2.99945 16.6419C2.36177 17.3794 2 18.304 2 19.1989C2 20.9554 2 23.8432 2 26.7016C2 30.587 5.16233 32.5557 8.32466 31.9342C8.32466 31.9342 19.1669 29.8035 21.8775 29.2707" stroke="#D891AB" stroke-width="3.11204" stroke-linecap="round" stroke-linejoin="round"/>
<path d="M20.9747 24.5916C20.9747 24.5916 21.1725 24.5527 21.8782 24.414C25.4923 23.7038 25.4923 28.5605 21.8782 29.2707" stroke="#D891AB" stroke-width="3.11204" stroke-linecap="round" stroke-linejoin="round"/>
<path d="M20.9744 19.7348C20.9744 19.7348 22.2736 19.4795 23.685 19.2021C27.2991 18.4919 27.2991 23.3485 23.685 24.0588C23.3321 24.1282 22.2308 24.3446 21.8779 24.4139C21.1722 24.5526 20.9744 24.5915 20.9744 24.5915" stroke="#D891AB" stroke-width="3.11204" stroke-linecap="round" stroke-linejoin="round"/>
<path d="M20.974 14.8784C20.974 14.8784 23.1627 14.4483 24.927 14.1015C28.541 13.3913 28.541 18.248 24.927 18.9582C24.927 18.9582 24.0374 19.133 23.6846 19.2024C22.2732 19.4798 20.974 19.7351 20.974 19.7351" stroke="#D891AB" stroke-width="3.11204" stroke-linecap="round" stroke-linejoin="round"/>
<path d="M14.1376 11.4795L31.2986 8.10684C32.5827 7.85448 33.6237 8.71154 33.6237 10.0211C33.6237 11.3307 32.5843 12.5966 31.3002 12.849C29.4546 13.2117 26.8941 13.7149 25.0985 14.0678C23.369 14.4077 21.2234 14.8294 21.2234 14.8294" stroke="#D891AB" stroke-width="3.11204" stroke-linecap="round" stroke-linejoin="round"/>
</svg>
