<svg width="40" height="40" viewBox="0 0 40 40" fill="none" xmlns="http://www.w3.org/2000/svg">
<g clip-path="url(#clip0_12_221)">
<path d="M0.320312 2.98438C0.109375 2.67188 0 2.29688 0 1.92188C0 0.859375 0.859375 0 1.92188 0H10.4609C11.3359 0 12.1562 0.460937 12.6016 1.21094L17.1641 8.81067C17.5358 9.42984 17.1482 10.231 16.4434 10.3887C13.7078 11.0006 11.2312 12.2992 9.208 14.1003C8.73119 14.5247 7.97726 14.4586 7.62292 13.9276L0.320312 2.98438ZM39.6758 2.98438C39.6733 2.98438 39.6711 2.9856 39.6697 2.98764L32.3769 13.9268C32.0227 14.4581 31.2685 14.5245 30.7916 14.0999C28.7684 12.2991 26.292 11.0005 23.5566 10.3887C22.8518 10.231 22.4642 9.42984 22.8359 8.81067L27.3984 1.21094C27.8516 0.460937 28.6641 0 29.5391 0H38.0781C39.1406 0 40 0.859375 40 1.92188C40 2.29558 39.8914 2.66929 39.6819 2.98114C39.6805 2.98317 39.6782 2.98438 39.6758 2.98438ZM6.25 26.25C6.25 22.6033 7.69866 19.1059 10.2773 16.5273C12.8559 13.9487 16.3533 12.5 20 12.5C23.6467 12.5 27.1441 13.9487 29.7227 16.5273C32.3013 19.1059 33.75 22.6033 33.75 26.25C33.75 29.8967 32.3013 33.3941 29.7227 35.9727C27.1441 38.5513 23.6467 40 20 40C16.3533 40 12.8559 38.5513 10.2773 35.9727C7.69866 33.3941 6.25 29.8967 6.25 26.25ZM20.6562 18.8359C20.3906 18.2891 19.6172 18.2891 19.3438 18.8359L17.5938 22.3828C17.4844 22.6016 17.2812 22.75 17.0469 22.7812L13.125 23.3516C12.5234 23.4375 12.2891 24.1719 12.7188 24.6016L15.5547 27.3672C15.7266 27.5391 15.8047 27.7734 15.7656 28.0156L15.0938 31.9141C14.9922 32.5078 15.6172 32.9688 16.1562 32.6875L19.6562 30.8438C19.8672 30.7344 20.125 30.7344 20.3359 30.8438L23.8359 32.6875C24.375 32.9688 25 32.5156 24.8984 31.9141L24.2266 28.0156C24.1875 27.7812 24.2656 27.5391 24.4375 27.3672L27.2734 24.6016C27.7109 24.1797 27.4688 23.4453 26.8672 23.3516L22.9531 22.7812C22.7188 22.75 22.5078 22.5938 22.4062 22.3828L20.6562 18.8359Z" fill="#320339"/>
</g>
<defs>
<clipPath id="clip0_12_221">
<rect width="40" height="40" fill="white"/>
</clipPath>
</defs>
</svg>
