<svg width="50" height="51" viewBox="0 0 50 51" fill="none" xmlns="http://www.w3.org/2000/svg">
<path fill-rule="evenodd" clip-rule="evenodd" d="M38.3396 12.378C36.607 10.6583 34.5456 9.29463 32.2747 8.36611C30.0039 7.43759 27.5687 6.96265 25.1104 6.96881C14.8021 6.96881 6.41042 15.2419 6.40625 25.4111C6.40625 28.6612 7.26667 31.8332 8.90208 34.6313L6.25 44.1863L16.1646 41.6203C18.9071 43.0925 21.9796 43.8644 25.1021 43.8658H25.1104C35.4167 43.8658 43.8083 35.5927 43.8125 25.4235C43.8196 23.0003 43.3396 20.5997 42.4002 18.3606C41.4608 16.1214 40.0807 14.0881 38.3396 12.378ZM25.1104 40.7534H25.1042C22.3198 40.7537 19.5867 40.015 17.1917 38.6148L16.625 38.2819L10.7417 39.8043L12.3104 34.1485L11.9417 33.5692C10.385 31.1253 9.5609 28.2971 9.56458 25.4111C9.56875 16.9593 16.5417 10.0833 25.1167 10.0833C27.1589 10.0788 29.1817 10.4738 31.068 11.2453C32.9544 12.0169 34.6668 13.1498 36.1062 14.5783C37.5534 16 38.7004 17.6905 39.481 19.552C40.2616 21.4135 40.6604 23.4091 40.6542 25.4235C40.65 33.8753 33.6771 40.7534 25.1104 40.7534ZM33.6375 29.2714C33.1687 29.0392 30.8729 27.9257 30.4437 27.7716C30.0167 27.6176 29.7062 27.5416 29.3937 28.0017C29.0812 28.4619 28.1854 29.4994 27.9125 29.8076C27.6396 30.1157 27.3667 30.1527 26.9 29.9226C26.4333 29.6925 24.9271 29.2056 23.1417 27.6361C21.7521 26.4137 20.8146 24.9058 20.5417 24.4435C20.2687 23.9813 20.5125 23.7327 20.7479 23.5026C20.9583 23.2972 21.2146 22.9644 21.4479 22.6952C21.6812 22.4261 21.7583 22.235 21.9146 21.9269C22.0708 21.6187 21.9937 21.3496 21.875 21.1195C21.7583 20.8874 20.8229 18.6193 20.4333 17.6969C20.0562 16.8032 19.6708 16.9224 19.3833 16.91C19.0856 16.898 18.7876 16.8926 18.4896 16.8936C18.2526 16.8996 18.0195 16.9537 17.8047 17.0527C17.59 17.1517 17.3983 17.2934 17.2417 17.4688C16.8125 17.9311 15.6062 19.0446 15.6062 21.3126C15.6062 23.5807 17.2812 25.7727 17.5146 26.0809C17.7479 26.389 20.8104 31.0422 25.4979 33.0391C26.6146 33.5137 27.4854 33.7972 28.1625 34.0109C29.2812 34.3622 30.3 34.3108 31.1062 34.1937C32.0042 34.0622 33.8708 33.0802 34.2604 32.0037C34.65 30.9272 34.65 30.0048 34.5333 29.8117C34.4167 29.6185 34.1021 29.5014 33.6375 29.2714Z" fill="#D891AB"/>
</svg>
